<?xml version="1.0" encoding="iso-8859-1"?>
<!-- Generator: Adobe Illustrator 19.0.0, SVG Export Plug-In . SVG Version: 6.00 Build 0)  -->
<svg version="1.1" id="Layer_1" fill="#006f37" xmlns="http://www.w3.org/2000/svg" xmlns:xlink="http://www.w3.org/1999/xlink" x="0px" y="0px"
	 viewBox="0 0 455 455" style="enable-background:new 0 0 455 455;" xml:space="preserve">
<g>
	<polygon points="0,40.196 0,285.375 136.195,162.785 	"/>
	<polygon points="372.579,20.014 22.421,20.014 197.5,177.604 	"/>
	<path d="M292.508,193.121c4.592-6.906,10.017-13.312,16.225-19.056c19.47-18.016,44.78-27.938,71.267-27.938
		c5.093,0,10.099,0.372,15,1.076V40.196L258.806,162.785L292.508,193.121z"/>
	<path d="M380,176.127c-41.355,0-75,33.645-75,75v78.859c0,24.813,20.187,45,45,45s45-20.187,45-45v-78.859h-30v78.859
		c0,8.271-6.729,15-15,15s-15-6.729-15-15v-78.859c0-24.813,20.187-45,45-45s45,20.187,45,45v78.859c0,41.355-33.645,75-75,75
		s-75-33.645-75-75l0.259-86.358l0.103-1.239c0.591-7.115,1.922-14.082,3.901-20.828l-42.878-38.595l-38.885,35l-38.884-35
		L22.421,305.556H245v24.43c0,57.897,47.103,105,105,105s105-47.103,105-105v-78.859C455,209.772,421.355,176.127,380,176.127z"/>
</g>
<g>
</g>
<g>
</g>
<g>
</g>
<g>
</g>
<g>
</g>
<g>
</g>
<g>
</g>
<g>
</g>
<g>
</g>
<g>
</g>
<g>
</g>
<g>
</g>
<g>
</g>
<g>
</g>
<g>
</g>
</svg>
