<svg enable-background="new 0 0 53.942 53.942" fill="#006f37" viewBox="0 0 53.942 53.942" xmlns="http://www.w3.org/2000/svg"><path d="m53.364 40.908c-2.008-3.796-8.981-7.912-9.288-8.092-.896-.51-1.831-.78-2.706-.78-1.301 0-2.366.596-3.011 1.68-1.02 1.22-2.285 2.646-2.592 2.867-2.376 1.612-4.236 1.429-6.294-.629l-11.486-11.487c-2.045-2.045-2.233-3.928-.632-6.291.224-.309 1.65-1.575 2.87-2.596.778-.463 1.312-1.151 1.546-1.995.311-1.123.082-2.444-.652-3.731-.173-.296-4.291-7.27-8.085-9.277-.708-.375-1.506-.573-2.306-.573-1.318 0-2.558.514-3.49 1.445l-2.538 2.537c-4.014 4.013-5.467 8.562-4.321 13.52.956 4.132 3.742 8.529 8.282 13.068l14.705 14.705c5.746 5.746 11.224 8.66 16.282 8.66h.001c3.72 0 7.188-1.581 10.305-4.698l2.537-2.537c1.542-1.541 1.892-3.871.873-5.796z"/></svg>